:SAMPLES-PER-SECOND 30
:FULLY-SPECIFIED
:DEGREES
523
root  16.1388 38.6498 3.48864 -157.062 -82.8582 149.74
RightUpLeg  -21.3552 1.74784 -6.52871
RightLeg  20.368 4.31392 1.48933
RightFoot  -4.74379 -0.530055 8.62041
RightToes  -3.31784e-009 0 -3.6325e-017
Spine  11.5652 -0.684383 -7.24392
Spine1  3.44302 -2.00642 2.74903
HEad  -7.49691 -2.07558 -3.00405
LeftShoulder1  -0.57448 4.98521 -32.6267
LeftArm  0.263388 1.59844 -37.319
LeftForeArm  32.2532 -51.0081 -11.3367
LeftHand  -0.00525452 6.98015 2.21368
RightShoulder  -1.13506 -6.60343 30.0983
RightArm  15.2805 -12.3007 40.3594
RightForeArm  17.6177 11.4976 6.15186
RightHand  -0.017811 3.49663 -0.490226
LeftUpLeg  5.71568 6.09107 -7.58129
LeftLeg  16.5794 9.77358 2.34004
LeftFoot  -15.2204 0.387001 8.70638
LeftToes  1.28511e-009 -3.60458e-011 6.16399e-011
524
root  15.0751 38.5715 3.47294 -150.525 -83.1672 143.809
RightUpLeg  -20.7373 -1.88619 -5.71142
RightLeg  10.1608 6.35991 0.687347
RightFoot  -5.07591 -0.524709 8.93349
RightToes  -3.31784e-009 0 -3.6325e-017
Spine  10.9303 -0.700602 -6.81351
Spine1  3.89873 -1.84103 2.51778
HEad  -7.68175 -2.95357 -2.96418
LeftShoulder1  -0.515429 4.84067 -32.4104
LeftArm  0.722799 1.0249 -38.0064
LeftForeArm  32.6538 -52.3757 -11.9449
LeftHand  -0.00483376 6.61344 2.6458
RightShoulder  -1.16623 -6.65299 30.5134
RightArm  15.5383 -12.0182 40.6098
RightForeArm  17.4801 11.7269 6.1668
RightHand  -0.0393036 2.80968 -0.776697
LeftUpLeg  7.45617 6.09227 -7.92243
LeftLeg  15.3804 9.28345 1.77339
LeftFoot  -16.3396 0.469763 8.48078
LeftToes  1.28511e-009 -3.60458e-011 6.16399e-011
525
root  13.9628 38.4407 3.45506 -141.708 -83.8383 135.511
RightUpLeg  -20.0687 -6.16663 -4.57263
RightLeg  2.13849 9.45603 -0.00672826
RightFoot  -5.61736 -0.492601 9.07811
RightToes  -3.31784e-009 0 -3.6325e-017
Spine  10.6117 -0.857548 -6.06596
Spine1  4.11907 -1.85518 2.29037
HEad  -7.8522 -3.73833 -2.95787
LeftShoulder1  -0.556438 4.93916 -32.6224
LeftArm  2.08678 0.442983 -38.5482
LeftForeArm  32.9744 -53.0609 -12.2557
LeftHand  -0.00311812 6.9053 2.40219
RightShoulder  -1.17169 -6.65993 30.6042
RightArm  15.89 -11.9888 41.0117
RightForeArm  17.6113 12.4135 6.03378
RightHand  0.013692 3.17949 -0.0505089
LeftUpLeg  9.15118 5.84545 -8.28071
LeftLeg  14.6215 8.41853 1.59807
LeftFoot  -17.5041 0.553524 8.31798
LeftToes  1.28511e-009 -3.60458e-011 6.16399e-011
526
root  12.755 38.2373 3.36974 -134.616 -84.5044 128.56
RightUpLeg  -19.3419 -6.30529 -4.44408
RightLeg  -1.57278 8.79367 -0.174429
RightFoot  -6.15994 -0.470611 9.42568
RightToes  -3.31784e-009 0 -3.6325e-017
Spine  10.2421 -0.778482 -5.30798
Spine1  4.81072 -1.74624 2.47407
HEad  -8.58707 -4.47949 -3.07968
LeftShoulder1  -0.560054 4.93474 -32.9795
LeftArm  3.58584 0.0349069 -39.4426
LeftForeArm  32.9576 -52.9125 -12.1845
LeftHand  -0.000581082 6.83532 2.65688
RightShoulder  -1.14247 -6.59555 30.4298
RightArm  16.4761 -11.5596 41.4504
RightForeArm  16.5645 13.1018 5.97323
RightHand  -0.0190694 3.14291 -0.479191
LeftUpLeg  11.0906 6.12272 -7.90544
LeftLeg  14.7435 7.07736 1.50381
LeftFoot  -19.368 0.648364 7.57762
LeftToes  1.28511e-009 -3.60458e-011 6.16399e-011
527
root  11.5149 37.9839 3.25896 -125.061 -85.2616 119.203
RightUpLeg  -19.7679 -6.12391 -4.17485
RightLeg  1.04586 6.04411 0.140237
RightFoot  -5.77393 -0.458638 8.43786
RightToes  -3.31784e-009 0 -3.6325e-017
Spine  10.21 -0.943944 -4.08887
Spine1  5.01121 -1.73716 2.00643
HEad  -8.90299 -5.06886 -2.94554
LeftShoulder1  -0.59229 5.00615 -33.2574
LeftArm  5.10356 0.25555 -40.3338
LeftForeArm  32.6495 -51.9366 -11.7374
LeftHand  -0.00956277 6.54064 2.34772
RightShoulder  -1.15247 -6.60138 30.6732
RightArm  17.8563 -10.5602 41.5964
RightForeArm  15.3268 13.6583 6.10676
RightHand  -0.061765 3.85228 -1.03852
LeftUpLeg  12.687 6.1473 -7.47791
LeftLeg  15.5424 5.77785 1.71017
LeftFoot  -21.3072 0.694577 6.49373
LeftToes  1.28511e-009 -3.60458e-011 6.16399e-011
